<svg id="svg" version="1.1" viewBox="0 0 300 300" width="300" height="300" xmlns="http://www.w3.org/2000/svg"><svg xmlns="http://www.w3.org/2000/svg"><defs><clipPath id="clip-1"><rect x="0" y="0" transform="scale(0.25168,0.25168)" width="1192" height="1192" fill="none"/></clipPath></defs><g clip-path="url(#clip-1)" fill="none" fill-rule="nonzero" stroke="none" stroke-width="1" stroke-linecap="butt" stroke-linejoin="miter" stroke-miterlimit="10" stroke-dasharray="" stroke-dashoffset="0" font-family="none" font-weight="none" font-size="none" text-anchor="none" style="mix-blend-mode: normal"><path d="M91.0729,79.98498c-0.04203,-0.25596 -0.07651,-0.51317 -0.10319,-0.77114c-0.4198,-4.2146 -0.12458,-13.97945 -0.12634,-18.60252c-0.00277,-7.27727 -0.3599,-16.7328 0.5318,-23.84547c0.42357,-3.37651 3.40243,-9.12961 5.58473,-11.83704c4.12978,-5.12361 11.10881,-9.24355 17.77827,-9.50283c7.54178,-0.29323 15.9818,-0.12513 23.67911,-0.12466l46.31804,0.00602l31.95076,-0.0074c5.59404,-0.00584 11.96728,-0.21216 17.48884,0.33418c2.41435,0.23887 6.04379,2.44072 7.93389,4.05674c7.18112,6.14008 13.77458,12.92305 20.62777,19.35619l16.52768,15.58591c3.90352,3.70042 9.23154,8.49916 12.36242,12.82223c2.2047,3.04606 2.69547,7.96737 2.96728,11.67357c0.2693,19.06913 0.3297,38.14077 0.17869,57.21116l-0.01762,70.29111l-0.00503,37.82567c-0.02517,3.45554 0.26174,11.96527 -0.22651,15.04329c-0.22148,8.55705 -6.41275,17.82886 -14.03607,21.86577c-3.39513,1.79698 -9.32215,2.48658 -13.13255,2.52181c-11.68792,0.1057 -23.41586,0.05537 -35.11963,0.05285l-65.89581,-0.01762l-32.74933,0.0151c-11.81426,0.00755 -25.0047,1.89262 -34.15268,-6.90101c-3.85621,-3.71225 -6.58842,-8.43372 -7.88331,-13.62584c-1.02307,-4.13003 -0.70822,-11.88171 -0.70445,-16.48087c0.04279,-6.97273 0.01007,-13.94572 -0.0979,-20.91745c-2.57668,2.2052 -9.06191,3.83129 -12.50587,4.08876c-11.11737,0.83054 -17.3021,-0.7349 -25.90143,-7.90721c-7.86091,-6.55646 -9.54438,-13.94471 -15.21594,-22.15243c-4.01502,-5.81074 -8.41233,-10.42148 -12.63463,-16.03213c-10.86523,-14.59832 -17.42127,-31.94975 -18.92421,-50.0854c-3.28881,-35.71812 15.082,-69.04354 54.37948,-68.12643c11.65948,0.27181 22.52743,6.96518 31.12374,14.18708zM103.53901,39.4427l-0.18649,-0.41275c-0.90503,2.42995 -0.58691,16.09027 -0.58314,19.36384l-0.1052,35.35747c0.00529,6.61988 0.04883,13.24027 0.03498,19.8594c-0.00151,0.66091 -0.43515,1.12827 -0.825,1.6349l0.2844,0.28893c-1.25185,0.57181 -2.76317,0.36946 -3.74622,-0.53532c-0.70596,-0.64958 -1.10713,-0.8031 -1.53146,-1.7844c-1.41242,-3.26628 -2.28523,-6.72936 -3.5995,-10.03339c-0.68406,-1.81032 -3.94329,-8.18482 -4.22894,-9.64304c0.0526,-2.63658 -12.68255,-14.2198 -16.35378,-13.87878c-1.10461,-0.15 -2.49992,-0.94681 -3.60252,-1.29237c-30.93322,-9.69841 -55.64247,17.60386 -53.19602,47.55378c0.266,3.25646 -0.38595,7.37693 0.11864,10.69606c2.70737,17.80872 10.01957,33.90151 21.8892,47.54597c2.74128,3.15126 5.13473,6.24211 7.60747,9.54337c5.97559,7.97743 8.02273,19.2229 17.93129,23.48834c12.13867,6.57836 25.16829,2.30109 30.02945,-10.94371c1.37819,-3.75554 1.15243,-6.5182 5.11963,-8.94438c1.07693,-0.01409 2.62324,-0.12357 3.60352,0.20008l-0.66695,0.11376c0.1875,1.11317 0.99463,1.39128 1.03163,2.63079c0.14245,4.79497 0.07626,9.86099 0.08079,14.65067l0.0219,31.68423c-0.00931,12.77794 -2.1526,20.07156 11.86384,25.62861c1.16174,0.53104 12.54539,0.46812 14.35545,0.4656l17.31191,-0.00755l58.0943,-0.0453l44.03557,-0.02013l12.55394,0.05034c6.0302,0.0453 11.57466,0.50839 16.57047,-3.72232c1.72903,-1.46728 4.54782,-4.99581 4.72399,-7.26342l-0.47064,-0.27685c0.62668,-3.23658 0.39262,-14.37584 0.3901,-18.09488l-0.02265,-36.65436l0.00755,-88.74388l-0.03272,-29.16342c-0.01007,-7.62634 2.40101,-10.612 -6.66191,-9.95738c-1.65604,-0.36317 -25.74589,-0.4495 -27.55998,-0.09161l-0.0901,0.26703c-1.55386,-0.22173 -2.3771,-0.31586 -3.88918,-0.82626c0.01208,-0.70369 -2.14958,-1.48012 -2.95545,-1.88607c-6.71376,-3.3818 -9.68129,-6.75 -12.57131,-13.33012c-3.13163,-7.13079 -0.37173,-31.40839 -2.29606,-35.52987c-2.09421,-0.40218 -10.0719,-0.22978 -12.62668,-0.22601l-25.78087,0.02995l-46.09832,-0.01208c-8.12416,-0.00428 -16.25663,-0.10872 -24.37852,0.12156c-4.01728,0.11376 -6.21342,0.79757 -9.26149,3.56804c-1.48465,1.3495 -4.47307,4.59539 -4.13129,6.73893c0.02693,0.85495 0.04883,1.02886 -0.20763,1.838z" fill="#3a7197"/><path d="M294.52349,259.5c-0.8406,-2.28775 -0.3297,-33.94832 -0.3297,-37.88708c-0.17114,-30.94958 -0.17617,-61.89966 -0.01258,-92.84899l-0.01007,-32.63557c-0.00252,-3.08029 -0.40772,-14.65847 0.42282,-16.99958c0.2693,19.06913 0.3297,38.14077 0.17869,57.21116l-0.01762,70.29111l-0.00503,37.82567c-0.02517,3.45554 0.26174,11.96527 -0.22651,15.04329z" fill="#2c617e"/><path d="M103.74664,37.6047c6.71955,-10.66057 9.36091,-9.78473 21.00352,-9.71779l16.08196,0.02945l54.9974,0.00453l17.88372,0.01284c3.25495,0.0005 7.31124,0.10193 10.47357,-0.12156c1.088,0.31586 0.83331,0.08381 1.41594,0.787c1.79723,16.40461 -4.71091,34.50831 10.67794,45.67852c2.39245,1.73683 4.66787,3.18347 7.56594,3.85268c1.51208,0.5104 2.33532,0.60453 3.88918,0.82626c3.35361,0.45478 24.59975,0.70646 27.65008,-0.17542c9.06292,-0.65461 6.65185,2.33104 6.66191,9.95738l0.03272,29.16342l-0.00755,88.74388l0.02265,36.65436c0.00252,3.71904 0.23658,14.85831 -0.3901,18.09488c-3.3297,6.8557 -7.20805,10.50755 -15.16611,10.55285c-11.76846,0.06544 -23.53943,0.01762 -35.30864,0.0151l-69.01309,0.01007l-30.66292,0.00755c-3.39287,0 -13.92383,0.19883 -16.66334,-0.52349c-3.33473,-0.79027 -4.99027,-1.85487 -7.50881,-4.17282c-4.39757,-4.0495 -3.97324,-7.1703 -3.9677,-12.65688c0.01711,-17.02349 0.04581,-34.06636 0.038,-51.0906c-0.00076,-1.72802 0.03221,-4.77081 -1.25361,-6.0302c-0.98029,-0.32366 -2.52659,-0.21418 -3.60352,-0.20008c-3.9672,2.42617 -3.74144,5.18884 -5.11963,8.94438c-4.86116,13.2448 -17.89077,17.52206 -30.02945,10.94371c-9.90856,-4.26544 -11.9557,-15.51091 -17.93129,-23.48834c-2.47273,-3.30126 -4.86619,-6.39211 -7.60747,-9.54337c-11.86963,-13.64446 -19.18183,-29.73725 -21.8892,-47.54597c-0.50459,-3.31913 0.14736,-7.4396 -0.11864,-10.69606c-2.44646,-29.94992 22.26279,-57.25218 53.19602,-47.55378c1.1026,0.34555 2.4979,1.14237 3.60252,1.29237c6.8177,4.03616 11.12945,7.88456 16.35378,13.87878c0.28565,1.45822 3.54488,7.83272 4.22894,9.64304c1.31426,3.30403 2.18708,6.76711 3.5995,10.03339c0.42433,0.98129 0.8255,1.13482 1.53146,1.7844c0.98305,0.90478 2.49438,1.10713 3.74622,0.53532c0.33096,-0.15403 1.21284,-0.59346 1.23045,-1.03792c0.19933,-5.02878 0.04203,-10.09581 0.03574,-15.1354l0.01158,-39.02114c-0.00277,-5.78104 -0.30252,-15.48322 0.10268,-20.89732c0.25646,-0.80914 0.23456,-0.98305 0.20763,-1.838zM81.84388,180.47617c-3.40872,-5.7682 -4.57928,-10.21837 -10.6198,-13.80956c-4.19346,-2.77072 -10.46426,-2.75235 -13.44488,-7.15193c-4.23624,-6.0307 -2.86057,-13.88557 0.50059,-19.95604c1.45193,-2.62198 12.95688,-8.93104 15.58616,-8.46971c0.19077,0.17416 0.46284,0.3453 0.47013,0.54513c0.08482,2.32248 -4.29513,8.28775 -5.63205,9.96871c-0.18096,1.48591 -0.55847,2.13826 0.54765,3.17366c0.95008,0.3302 2.44908,0.08532 3.50487,-0.01158c1.52794,-1.13255 5.0255,-3.22777 6.16862,-4.48213c2.96854,-3.25721 5.59279,-8.84245 6.2479,-13.2078c0.32492,-2.16443 0.11653,-4.53876 0.21015,-6.59874c0.42609,-9.37374 -1.96762,-18.51871 -8.85478,-25.24379c-4.10789,-4.01124 -10.29941,-8.45185 -16.44513,-8.4297c1.89715,1.08926 5.02072,1.49773 7.29237,2.5568c7.38372,3.4427 13.46376,10.04874 15.85696,17.89253c2.38364,8.73045 2.98591,19.71292 -1.56745,27.90076c-2.54421,4.575 -4.77005,6.68658 -9.75956,8.85755c-0.60227,0.262 -1.51636,0.26703 -2.14857,0.14446c-0.67928,-0.47542 -0.49732,-0.2104 -0.70268,-0.98255c1.56015,-3.60176 6.31334,-9.6146 6.57634,-13.1922c-1.13003,-0.87584 -4.74589,1.07341 -6.01082,1.64799c-3.97701,1.80604 -8.72592,3.59824 -11.40176,7.20579c-3.11376,4.21485 -4.42223,9.49581 -3.63649,14.67685c1.87273,12.1505 12.19178,9.4807 19.2297,15.71753c1.06535,0.94832 2.00084,2.0328 2.7828,3.22576c0.99866,1.51309 3.90453,7.56216 5.1677,8.06728zM150.14396,145.11493c-0.00478,1.66384 0.90604,3.55268 2.12794,4.6729c2.82181,2.58649 6.72483,2.22911 10.26065,2.06149c2.9172,-2.25503 4.97517,-4.02181 5.59555,-8.04413c0.49732,-3.225 -3.40092,-9.65713 -6.56728,-9.76888l-0.27886,0.45453c5.79111,4.46275 8.66401,7.2229 3.77768,14.46015c-1.04799,1.5521 -3.16183,2.06049 -4.89337,2.23339c-4.03364,0.40268 -6.87659,-0.66267 -8.9323,-4.2823c-0.38909,-0.68532 -0.48523,-1.18716 -1.09002,-1.78716zM87.99035,142.2068c-3.02919,2.79564 -6.0448,6.28012 -7.29992,10.27727l0.37827,0.06065c2.21149,-3.47366 8.81804,-16.39404 12.66443,-6.55671c1.15319,2.94966 -6.70948,9.67903 -5.01846,11.42441c2.15889,-4.46779 3.92215,-5.71586 5.89832,-9.44169c-0.06518,-1.48918 -0.15554,-2.31946 -0.40545,-3.78926c-0.58037,-0.62567 -1.27651,-1.29815 -1.88331,-1.91275c-1.89992,-0.21342 -2.40352,-0.23809 -4.33389,-0.06191zM92.61871,185.56384c-1.23549,0.07576 -2.91418,2.38062 -5.04841,2.96703c-1.94421,0.53381 -7.68423,-0.71602 -8.40201,-0.60101c4.51787,3.00428 9.96871,1.43708 13.45042,-2.36602zM205.84354,181.6729c4.35201,-0.72861 12.60654,-8.43448 14.57592,-12.58666l-0.32064,-0.50839c-3.37475,5.33784 -8.58297,10.31829 -14.4297,12.76737zM229.41342,134.38792l-0.82827,0.34555c0.71451,0.84866 1.84706,0.97601 2.68087,1.59614c4.38423,3.26023 4.69857,10.02257 0.73792,13.75872c-0.9229,0.8703 -2.53591,1.07215 -3.43112,1.8906c1.4547,-0.36116 2.79866,-1.07265 3.91535,-2.07206c2.42039,-2.16644 3.5177,-5.44958 2.88649,-8.63607c-0.63146,-3.18624 -2.89757,-5.80294 -5.96124,-6.88289z" fill="#ffffff"/><path d="M52.58003,186.43465c-4.23473,-2.12265 -9.95386,-8.34312 -12.91384,-12.13188c-11.53691,-14.91569 -18.1457,-34.91351 -15.71937,-53.76267c2.43707,-18.93272 15.05293,-36.59119 36.13648,-33.73742c1.89715,1.08926 5.02072,1.49773 7.29237,2.5568c7.38372,3.4427 13.46376,10.04874 15.85696,17.89253c2.38364,8.73045 2.98591,19.71292 -1.56745,27.90076c-2.54421,4.575 -4.77005,6.68658 -9.75956,8.85755c-0.60227,0.262 -1.51636,0.26703 -2.14857,0.14446c-0.67928,-0.47542 -0.49732,-0.2104 -0.70268,-0.98255c1.56015,-3.60176 6.31334,-9.6146 6.57634,-13.1922c-1.13003,-0.87584 -4.74589,1.07341 -6.01082,1.64799c-3.97701,1.80604 -8.72592,3.59824 -11.40176,7.20579c-3.11376,4.21485 -4.42223,9.49581 -3.63649,14.67685c1.87273,12.1505 12.19178,9.4807 19.2297,15.71753c1.06535,0.94832 2.00084,2.0328 2.7828,3.22576c0.99866,1.51309 3.90453,7.56216 5.1677,8.06728l0.08205,-0.04505c8.57416,-0.09614 3.48826,-5.94866 0.85973,-9.75c-3.37802,-4.88557 -4.21258,-12.66267 -2.01317,-18.24211l0.37827,0.06065c2.21149,-3.47366 8.81804,-16.39404 12.66443,-6.55671c1.15319,2.94966 -6.70948,9.67903 -5.01846,11.42441c-0.13112,0.75227 -0.39841,2.13951 -0.21292,2.81653c1.97768,7.22139 7.7469,10.95705 7.17911,19.09606c-0.16812,2.41208 -1.01049,4.65705 -3.06216,6.23884c-1.23549,0.07576 -2.91418,2.38062 -5.04841,2.96703c-1.94421,0.53381 -7.68423,-0.71602 -8.40201,-0.60101c-3.74673,-0.19128 -7.49446,-7.73985 -9.19706,-10.49069c-2.60814,-4.21409 -8.27391,-5.18205 -12.47844,-7.32181c-4.98876,-2.53867 -8.92148,-6.88666 -10.96535,-12.12307c0.19681,-2.51049 -0.74924,-4.36309 -0.94631,-6.6375c-0.66946,-7.72349 4.7104,-18.24287 10.16602,-22.53272c7.30268,-5.74178 15.32894,-5.52408 20.68616,-12.43767c0.18977,-1.09505 -0.27307,-1.44539 -0.45176,-2.40629c-4.80654,-25.82919 -35.69044,-23.46267 -41.78909,0.32945c-5.71133,22.28205 0.22701,43.75948 14.76644,61.10461c2.16317,2.58045 4.07341,6.13112 5.66779,9.0677z" fill="#3a7197"/><path d="M165.44069,164.43624c6.71049,-3.2995 5.44178,-0.19455 9.32643,3.67727c4.35579,4.02257 11.25805,7.34522 17.20998,7.92433c5.90411,0.23733 13.10638,-3.34153 17.26133,-7.1995c4.47659,-4.15671 4.46854,-7.51183 10.94622,-4.33817c0.23029,1.80982 0.38733,2.74581 0.23482,4.58607l-0.32064,-0.50839c-3.37475,5.33784 -8.58297,10.31829 -14.4297,12.76737l0.17441,0.32768c-6.49958,3.8693 -21.08758,3.21166 -27.8625,-0.41678c-3.96695,-2.12416 -11.40503,-7.91779 -13.38599,-12.34757c-0.7344,-1.6427 0.09035,-3.00705 0.84564,-4.47232z" fill="#3a7197"/><path d="M223.17383,134.43398c2.01091,-0.7422 4.21787,-0.75856 6.2396,-0.04606l-0.82827,0.34555c0.71451,0.84866 1.84706,0.97601 2.68087,1.59614c4.38423,3.26023 4.69857,10.02257 0.73792,13.75872c-0.9229,0.8703 -2.53591,1.07215 -3.43112,1.8906c-3.40495,0.84564 -6.99463,-0.32089 -9.25218,-3.0068c-2.2573,-2.68591 -2.78909,-6.42232 -1.37064,-9.63146c1.0057,-2.27492 2.89027,-4.04522 5.22383,-4.90671z" fill="#3a7197"/><path d="M150.14396,145.11493c-0.52802,-8.9479 2.66376,-11.63029 11.41686,-11.07861l-0.27886,0.45453c5.79111,4.46275 8.66401,7.2229 3.77768,14.46015c-1.04799,1.5521 -3.16183,2.06049 -4.89337,2.23339c-4.03364,0.40268 -6.87659,-0.66267 -8.9323,-4.2823c-0.38909,-0.68532 -0.48523,-1.18716 -1.09002,-1.78716z" fill="#3a7197"/><path d="M60.08331,86.80268c6.14572,-0.02215 12.33725,4.41846 16.44513,8.4297c6.88716,6.72508 9.28087,15.87005 8.85478,25.24379c-0.09362,2.05998 0.11477,4.43431 -0.21015,6.59874c-0.65512,4.36535 -3.27936,9.95059 -6.2479,13.2078c-1.14312,1.25436 -4.64069,3.34958 -6.16862,4.48213c-1.05579,0.0969 -2.55478,0.34178 -3.50487,0.01158c-1.10612,-1.0354 -0.72861,-1.68775 -0.54765,-3.17366c1.33691,-1.68096 5.71686,-7.64622 5.63205,-9.96871c-0.0073,-0.19983 -0.27936,-0.37097 -0.47013,-0.54513c-2.62928,-0.46133 -14.13423,5.84773 -15.58616,8.46971c-3.36116,6.07047 -4.73683,13.92534 -0.50059,19.95604c2.98062,4.39958 9.25143,4.38121 13.44488,7.15193c6.04052,3.59119 7.21107,8.04136 10.6198,13.80956l-0.08205,0.04505c-1.26317,-0.50512 -4.16904,-6.55419 -5.1677,-8.06728c-0.78196,-1.19295 -1.71745,-2.27743 -2.7828,-3.22576c-7.03792,-6.23683 -17.35696,-3.56703 -19.2297,-15.71753c-0.78574,-5.18104 0.52273,-10.462 3.63649,-14.67685c2.67584,-3.60755 7.42475,-5.39975 11.40176,-7.20579c1.26493,-0.57458 4.88079,-2.52383 6.01082,-1.64799c-0.263,3.5776 -5.01619,9.59044 -6.57634,13.1922c0.20537,0.77215 0.02341,0.50713 0.70268,0.98255c0.63221,0.12257 1.54631,0.11753 2.14857,-0.14446c4.98951,-2.17097 7.21535,-4.28255 9.75956,-8.85755c4.55336,-8.18784 3.95109,-19.1703 1.56745,-27.90076c-2.3932,-7.84379 -8.47324,-14.44983 -15.85696,-17.89253c-2.27164,-1.05906 -5.39522,-1.46753 -7.29237,-2.5568z" fill-opacity="0.25882" fill="#2c617e"/><path d="M161.56082,134.03633c3.16636,0.11174 7.0646,6.54388 6.56728,9.76888c-0.62039,4.02232 -2.67836,5.78909 -5.59555,8.04413c-3.53582,0.16762 -7.43884,0.525 -10.26065,-2.06149c-1.2219,-1.12022 -2.13272,-3.00906 -2.12794,-4.6729c0.60478,0.6 0.70092,1.10185 1.09002,1.78716c2.0557,3.61963 4.89866,4.68498 8.9323,4.2823c1.73154,-0.1729 3.84539,-0.68129 4.89337,-2.23339c4.88633,-7.23725 2.01342,-9.9974 -3.77768,-14.46015z" fill-opacity="0.71373" fill="#3a7197"/><path d="M87.99035,142.2068c1.93037,-0.17617 2.43398,-0.15151 4.33389,0.06191c0.6068,0.6146 1.30294,1.28708 1.88331,1.91275c0.24992,1.4698 0.34027,2.30008 0.40545,3.78926c-1.97617,3.72584 -3.73943,4.97391 -5.89832,9.44169c-1.69102,-1.74539 6.17164,-8.47475 5.01846,-11.42441c-3.84639,-9.83733 -10.45294,3.08305 -12.66443,6.55671l-0.37827,-0.06065c1.25512,-3.99715 4.27072,-7.48163 7.29992,-10.27727z" fill-opacity="0.08235" fill="#2c617e"/><path d="M229.41342,134.38792c3.06367,1.07995 5.32978,3.69664 5.96124,6.88289c0.63121,3.18649 -0.46611,6.46963 -2.88649,8.63607c-1.11669,0.99941 -2.46065,1.71091 -3.91535,2.07206c0.89522,-0.81846 2.50822,-1.0203 3.43112,-1.8906c3.96065,-3.73616 3.64631,-10.49849 -0.73792,-13.75872c-0.83381,-0.62013 -1.96636,-0.74748 -2.68087,-1.59614z" fill-opacity="0.08627" fill="#2c617e"/><path d="M205.84354,181.6729l-0.17441,-0.32768c5.84673,-2.44908 11.05495,-7.42953 14.4297,-12.76737l0.32064,0.50839c-1.96938,4.15218 -10.22391,11.85805 -14.57592,12.58666z" fill-opacity="0.10588" fill="#2c617e"/><path d="M79.16829,187.92987c0.71779,-0.11502 6.4578,1.13482 8.40201,0.60101c2.13423,-0.58641 3.81292,-2.89128 5.04841,-2.96703c-3.48171,3.8031 -8.93255,5.3703 -13.45042,2.36602z" fill-opacity="0.89804" fill="#3a7197"/><path d="M238.6432,34.05453c1.01628,0.4271 8.92097,7.63087 10.37919,8.89329c3.01535,2.60914 6.49102,6.77819 9.64958,9.59824c4.49245,4.00822 9.38758,7.80831 13.1401,12.53104c0.29698,0.38456 0.03272,0.9005 -0.10067,1.34899c-0.86326,0.03926 -1.61829,0.038 -2.48154,-0.07601c-8.85654,-1.16904 -21.54966,3.15554 -28.29891,-4.96888c-2.97282,-3.57861 -2.57794,-10.7698 -2.51351,-15.29421c0.05109,-3.59044 -0.29069,-8.57718 0.22576,-12.03247z" fill="#ffffff"/><path d="M281.70554,261.39513l0.47064,0.27685c-0.17617,2.26762 -2.99497,5.79614 -4.72399,7.26342c-4.99581,4.2307 -10.54027,3.76762 -16.57047,3.72232l-12.55394,-0.05034l-44.03557,0.02013l-58.0943,0.0453l-17.31191,0.00755c-1.81007,0.00252 -13.19371,0.06544 -14.35545,-0.4656l0.36091,-0.75755c2.73951,0.72232 13.27047,0.52349 16.66334,0.52349l30.66292,-0.00755l69.01309,-0.01007c11.76921,0.00252 23.54018,0.05034 35.30864,-0.0151c7.95805,-0.0453 11.83641,-3.69715 15.16611,-10.55285z" fill-opacity="0.8" fill="#2c617e"/><path d="M103.74664,37.6047c-0.34178,-2.14354 2.64664,-5.38943 4.13129,-6.73893c3.04807,-2.77047 5.24421,-3.45428 9.26149,-3.56804c8.1219,-0.23029 16.25436,-0.12584 24.37852,-0.12156l46.09832,0.01208l25.78087,-0.02995c2.55478,-0.00378 10.53247,-0.17617 12.62668,0.22601c-2.87668,0.16812 -6.1656,-0.04807 -8.87064,0.16334c1.43633,0.0453 6.04455,-0.01258 7.03364,0.26451c-3.16233,0.22349 -7.21862,0.12206 -10.47357,0.12156l-17.88372,-0.01284l-54.9974,-0.00453l-16.08196,-0.02945c-11.64262,-0.06695 -14.28398,-0.94279 -21.00352,9.71779z" fill-opacity="0.44706" fill="#3a7197"/><path d="M102.19933,197.50671c1.28582,1.2594 1.25285,4.30218 1.25361,6.0302c0.0078,17.02424 -0.02089,34.06711 -0.038,51.0906c-0.00554,5.48658 -0.42987,8.60738 3.9677,12.65688c2.51854,2.31795 4.17408,3.38255 7.50881,4.17282l-0.36091,0.75755c-14.01644,-5.55705 -11.87315,-12.85067 -11.86384,-25.62861l-0.0219,-31.68423c-0.00453,-4.78968 0.06166,-9.8557 -0.08079,-14.65067c-0.037,-1.23951 -0.84413,-1.51762 -1.03163,-2.63079z" fill-opacity="0.15686" fill="#012d3a"/><path d="M102.15856,115.53448l-0.2844,-0.28893c0.38985,-0.50663 0.82349,-0.97399 0.825,-1.6349c0.01384,-6.61913 -0.0297,-13.23951 -0.03498,-19.8594l0.1052,-35.35747c-0.00378,-3.27357 -0.3219,-16.93389 0.58314,-19.36384l0.18649,0.41275c-0.4052,5.41409 -0.10545,15.11628 -0.10268,20.89732l-0.01158,39.02114c0.00629,5.0396 0.16359,10.10663 -0.03574,15.1354c-0.01762,0.44446 -0.8995,0.88389 -1.23045,1.03792z" fill-opacity="0.25882" fill="#2c617e"/><path d="M247.73582,78.95663l0.0901,-0.26703c1.81409,-0.35789 25.90394,-0.27156 27.55998,0.09161c-3.05034,0.88188 -24.29648,0.6302 -27.65008,0.17542z" fill-opacity="0.27843" fill="#3a7197"/><path d="M72.69866,79.65956c3.67122,-0.34102 16.40638,11.2422 16.35378,13.87878c-5.22433,-5.99421 -9.53607,-9.84262 -16.35378,-13.87878z" fill-opacity="0.19608" fill="#3a7197"/></g></svg></svg>